<?xml version="1.0" encoding="UTF-8" standalone="no"?>
<svg width="401px" height="468px" viewBox="0 0 401 468" version="1.1" xmlns="http://www.w3.org/2000/svg" xmlns:xlink="http://www.w3.org/1999/xlink">
    <!-- Generator: Sketch 39.1 (31720) - http://www.bohemiancoding.com/sketch -->
    <title>Group 4</title>
    <desc>Created with Sketch.</desc>
    <defs>
        <path d="M199.99814,50 C285.052863,50.0008136 354,118.948183 354,204 C354,289.053212 285.052863,358.001278 199.99814,358 C114.94702,358.001278 46.0001162,289.053212 46,204 C46.0001162,118.948183 114.94702,50.0008136 199.99814,50 L199.99814,50 Z M255.844352,230.193482 C254.321553,230.26101 253.494602,230.451621 252.030847,230.85574 C252.032706,230.856438 250.484454,231.346913 250.483176,231.346565 C250.484454,231.346913 249.605318,231.379224 249.603458,231.377365 C249.605318,231.379224 249.025115,231.398518 249.023953,231.396658 C249.025115,231.398518 248.169689,231.422112 248.16934,231.421647 C248.169689,231.422112 247.044152,231.437802 247.043223,231.437105 C235.294708,232.731867 242.346862,242.371918 239.248847,249.443482 C237.832512,252.676669 234.171728,254.142749 232.709716,257.337929 C231.248285,260.529623 231.814657,264.558495 232.24574,267.883152 C234.467641,284.929034 245.73277,276.929983 248.088447,291.042776 C249.720498,300.809979 245.234623,318.309377 241.889976,327.669787 C240.765369,330.819872 237.480113,333.238195 238.088094,336.886658 C238.544631,339.637272 242.471224,344.55795 245.595623,343.808871 C245.951508,343.724607 245.483813,342.833731 245.474282,342.763647 C245.328651,341.671816 245.721147,340.377867 246.440705,339.546965 C250.427968,334.970201 254.843177,330.787561 258.841482,326.220211 C260.196217,324.674284 261.025725,322.728189 262.837811,321.615553 C265.729989,319.848098 269.306509,322.261307 272.258776,320.787905 C273.926509,319.958281 273.980554,314.920563 273.939294,313.520965 C284.559366,312.185639 286.103202,300.197117 293.316213,294.323034 C296.273478,291.918309 300.463556,292.033722 303.411058,289.602847 C304.568441,288.648395 303.210103,287.004605 303.251131,285.858729 C303.593185,276.812827 318.141013,268.54448 316.252682,260.995458 C311.350368,253.445158 298.54582,252.543706 291.008189,251.67654 C290.166245,251.581932 289.360098,251.743719 288.85614,252.456187 C288.857535,252.458047 292.309343,246.88778 292.3076,246.887082 C286.502672,241.417235 279.387407,237.321997 272.636047,233.169576 C269.050346,230.964877 265.074589,231.505214 261.057223,230.988587 C259.331609,230.768106 257.611342,230.117586 255.844352,230.193482 L255.844352,230.193482 Z M183.013858,67.3634128 C174.363242,68.6271426 165.295141,68.3649358 156.593153,68.1163275 C162.574048,71.3463758 165.903586,68.661197 167.914187,76.4205887 C147.88733,74.4491562 110.02181,86.1562943 93.9344468,100.200165 C93.9347955,100.200397 94.6914294,104.353283 94.6909645,104.352469 C89.345363,109.449695 84.4766385,121.585941 97.7093645,114.543434 C97.7109917,114.545177 99.9762445,110.015369 99.9750823,110.013858 L100.72974,107.750116 C100.730322,107.750814 126.397995,107.750814 126.397647,107.750116 C164.688672,122.218097 126.860809,152.404537 159.98894,170.784234 C163.619737,168.969242 182.223402,190.133608 185.279576,193.431765 C182.293835,209.141159 227.949082,206.441336 234.725082,224.381929 C234.726128,224.382975 248.693754,226.648344 248.69294,226.647647 C248.693754,226.648344 238.499884,223.250814 238.49814,223.25 L238.49814,211.549952 C238.499884,211.550765 219.249884,207.776429 219.24814,207.774918 L219.24814,196.827552 C218.850414,193.789161 214.547828,197.035481 215.095835,197.582094 C215.097811,197.582791 209.434563,200.982065 209.434447,200.9816 C201.116238,187.543037 199.560664,177.301398 216.984282,172.670705 C216.984747,172.671983 243.030622,184.750581 243.029576,184.750116 C243.030622,184.750581 240.387052,170.785164 240.386587,170.784234 C246.087842,165.128308 250.994223,170.589322 250.952847,161.727058 C252.173805,154.54659 268.458405,154.516023 267.184447,146.250116 L280.773058,146.250116 C278.821035,142.4924 276.041248,127.756866 271.338611,127 L286.434447,127 C286.434563,127.000581 286.815437,134.551114 286.813694,134.549952 C305.282768,137.966078 289.696225,130.152409 287.945623,118.318352 C282.381283,115.34958 276.760341,109.475149 274.357011,103.597928 C271.795149,105.065867 268.192711,105.289719 265.299952,105.107128 C265.300184,105.108638 256.617374,95.6723321 256.616211,95.6705887 C256.617374,95.6723321 243.784699,92.6532347 243.784234,92.6521887 C243.784699,92.6532347 250.578133,103.976593 250.577552,103.975082 C249.358569,107.978152 243.620355,125.354234 237.745458,118.695623 C236.321685,117.0824 239.164931,104.099793 229.818352,108.127503 C229.81963,108.127736 213.210875,96.8046098 213.209365,96.802634 L213.209365,94.5387758 C218.406429,86.4501147 228.58147,85.6123547 228.684447,76.4205887 C222.730168,75.1347758 217.029494,73.4026536 210.945623,73.4021887 C210.945739,73.4026536 201.510943,79.8193977 201.5092,79.8183517 C193.361728,81.5984755 184.97053,67.3358672 183.013858,67.3634128 L183.013858,67.3634128 Z" id="path-1"></path>
        <filter x="-50%" y="-50%" width="200%" height="200%" filterUnits="objectBoundingBox" id="filter-2">
            <feOffset dx="2" dy="3" in="SourceAlpha" result="shadowOffsetOuter1"></feOffset>
            <feGaussianBlur stdDeviation="16.5" in="shadowOffsetOuter1" result="shadowBlurOuter1"></feGaussianBlur>
            <feColorMatrix values="0 0 0 0 0   0 0 0 0 0   0 0 0 0 0  0 0 0 1 0" type="matrix" in="shadowBlurOuter1"></feColorMatrix>
        </filter>
        <linearGradient x1="50%" y1="38.4423194%" x2="50%" y2="98.5491071%" id="linearGradient-3">
            <stop stop-color="#FFFFFF" offset="0%"></stop>
            <stop stop-color="#FFFFFF" stop-opacity="0.674818841" offset="100%"></stop>
        </linearGradient>
    </defs>
    <g id="Page-1" stroke="none" stroke-width="1" fill="none" fill-rule="evenodd">
        <g id="Group">
            <g id="Group-4">
                <g id="Group-3">
                    <path d="M200.277668,406.829246 C200.406668,402.785246 199.358668,401.474246 195.116668,401.398246 C158.652668,400.744246 124.792668,390.747246 94.1776676,371.032246 C41.6116676,337.180246 10.5236676,288.974246 1.89366759,227.085246 C-12.7323324,122.195246 58.9136676,23.3852465 163.291668,3.48424645 C269.470668,-16.7597535 374.046668,53.2962465 395.608668,159.478246 C406.615668,213.684246 396.769668,265.046246 372.034668,313.808246 C348.938668,359.340246 314.462668,395.071246 273.709668,425.105246 C252.492668,440.742246 229.956668,454.224246 206.195668,465.641246 C200.499668,468.379246 200.198668,468.171246 200.189668,461.820246 C200.175668,452.654246 200.185668,443.489246 200.185668,434.323246 C200.185668,425.157246 199.985668,415.985246 200.277668,406.829246 Z" id="Fill-1" fill="#34495E"></path>
                    <g id="Fill-20">
                        <use fill="black" fill-opacity="1" filter="url(#filter-2)" xlink:href="#path-1"></use>
                        <use fill="#34495E" fill-rule="evenodd" xlink:href="#path-1"></use>
                    </g>
                    <path d="M199.99814,50 C285.052863,50.0008136 354,118.948183 354,204 C354,289.053212 285.052863,358.001278 199.99814,358 C114.94702,358.001278 46.0001162,289.053212 46,204 C46.0001162,118.948183 114.94702,50.0008136 199.99814,50 L199.99814,50 Z M255.844352,230.193482 C254.321553,230.26101 253.494602,230.451621 252.030847,230.85574 C252.032706,230.856438 250.484454,231.346913 250.483176,231.346565 C250.484454,231.346913 249.605318,231.379224 249.603458,231.377365 C249.605318,231.379224 249.025115,231.398518 249.023953,231.396658 C249.025115,231.398518 248.169689,231.422112 248.16934,231.421647 C248.169689,231.422112 247.044152,231.437802 247.043223,231.437105 C235.294708,232.731867 242.346862,242.371918 239.248847,249.443482 C237.832512,252.676669 234.171728,254.142749 232.709716,257.337929 C231.248285,260.529623 231.814657,264.558495 232.24574,267.883152 C234.467641,284.929034 245.73277,276.929983 248.088447,291.042776 C249.720498,300.809979 245.234623,318.309377 241.889976,327.669787 C240.765369,330.819872 237.480113,333.238195 238.088094,336.886658 C238.544631,339.637272 242.471224,344.55795 245.595623,343.808871 C245.951508,343.724607 245.483813,342.833731 245.474282,342.763647 C245.328651,341.671816 245.721147,340.377867 246.440705,339.546965 C250.427968,334.970201 254.843177,330.787561 258.841482,326.220211 C260.196217,324.674284 261.025725,322.728189 262.837811,321.615553 C265.729989,319.848098 269.306509,322.261307 272.258776,320.787905 C273.926509,319.958281 273.980554,314.920563 273.939294,313.520965 C284.559366,312.185639 286.103202,300.197117 293.316213,294.323034 C296.273478,291.918309 300.463556,292.033722 303.411058,289.602847 C304.568441,288.648395 303.210103,287.004605 303.251131,285.858729 C303.593185,276.812827 318.141013,268.54448 316.252682,260.995458 C311.350368,253.445158 298.54582,252.543706 291.008189,251.67654 C290.166245,251.581932 289.360098,251.743719 288.85614,252.456187 C288.857535,252.458047 292.309343,246.88778 292.3076,246.887082 C286.502672,241.417235 279.387407,237.321997 272.636047,233.169576 C269.050346,230.964877 265.074589,231.505214 261.057223,230.988587 C259.331609,230.768106 257.611342,230.117586 255.844352,230.193482 L255.844352,230.193482 Z M183.013858,67.3634128 C174.363242,68.6271426 165.295141,68.3649358 156.593153,68.1163275 C162.574048,71.3463758 165.903586,68.661197 167.914187,76.4205887 C147.88733,74.4491562 110.02181,86.1562943 93.9344468,100.200165 C93.9347955,100.200397 94.6914294,104.353283 94.6909645,104.352469 C89.345363,109.449695 84.4766385,121.585941 97.7093645,114.543434 C97.7109917,114.545177 99.9762445,110.015369 99.9750823,110.013858 L100.72974,107.750116 C100.730322,107.750814 126.397995,107.750814 126.397647,107.750116 C164.688672,122.218097 126.860809,152.404537 159.98894,170.784234 C163.619737,168.969242 182.223402,190.133608 185.279576,193.431765 C182.293835,209.141159 227.949082,206.441336 234.725082,224.381929 C234.726128,224.382975 248.693754,226.648344 248.69294,226.647647 C248.693754,226.648344 238.499884,223.250814 238.49814,223.25 L238.49814,211.549952 C238.499884,211.550765 219.249884,207.776429 219.24814,207.774918 L219.24814,196.827552 C218.850414,193.789161 214.547828,197.035481 215.095835,197.582094 C215.097811,197.582791 209.434563,200.982065 209.434447,200.9816 C201.116238,187.543037 199.560664,177.301398 216.984282,172.670705 C216.984747,172.671983 243.030622,184.750581 243.029576,184.750116 C243.030622,184.750581 240.387052,170.785164 240.386587,170.784234 C246.087842,165.128308 250.994223,170.589322 250.952847,161.727058 C252.173805,154.54659 268.458405,154.516023 267.184447,146.250116 L280.773058,146.250116 C278.821035,142.4924 276.041248,127.756866 271.338611,127 L286.434447,127 C286.434563,127.000581 286.815437,134.551114 286.813694,134.549952 C305.282768,137.966078 289.696225,130.152409 287.945623,118.318352 C282.381283,115.34958 276.760341,109.475149 274.357011,103.597928 C271.795149,105.065867 268.192711,105.289719 265.299952,105.107128 C265.300184,105.108638 256.617374,95.6723321 256.616211,95.6705887 C256.617374,95.6723321 243.784699,92.6532347 243.784234,92.6521887 C243.784699,92.6532347 250.578133,103.976593 250.577552,103.975082 C249.358569,107.978152 243.620355,125.354234 237.745458,118.695623 C236.321685,117.0824 239.164931,104.099793 229.818352,108.127503 C229.81963,108.127736 213.210875,96.8046098 213.209365,96.802634 L213.209365,94.5387758 C218.406429,86.4501147 228.58147,85.6123547 228.684447,76.4205887 C222.730168,75.1347758 217.029494,73.4026536 210.945623,73.4021887 C210.945739,73.4026536 201.510943,79.8193977 201.5092,79.8183517 C193.361728,81.5984755 184.97053,67.3358672 183.013858,67.3634128 L183.013858,67.3634128 Z" id="Fill-20-Copy" fill="url(#linearGradient-3)"></path>
                </g>
            </g>
        </g>
    </g>
</svg>