<?xml version="1.0" encoding="UTF-8"?>
<svg width="137px" height="137px" viewBox="0 0 137 137" version="1.1" xmlns="http://www.w3.org/2000/svg" xmlns:xlink="http://www.w3.org/1999/xlink">
    <!-- Generator: Sketch 40 (33762) - http://www.bohemiancoding.com/sketch -->
    <title>Group</title>
    <desc>Created with Sketch.</desc>
    <defs>
        <ellipse id="path-1" cx="68.5" cy="68.5" rx="68.5" ry="68.5"></ellipse>
        <ellipse id="path-3" cx="68.5" cy="68.5" rx="68.5" ry="68.5"></ellipse>
    </defs>
    <g id="Page-1" stroke="none" stroke-width="1" fill="none" fill-rule="evenodd">
        <g id="login" transform="translate(-572.000000, -87.000000)">
            <g id="Group" transform="translate(572.000000, 87.000000)">
                <ellipse id="path-1" fill="#34495E" cx="68.5" cy="68.5" rx="68.5" ry="68.5"></ellipse>
                <mask id="mask-2" fill="white">
                    <use xlink:href="#path-1"></use>
                </mask>
                <g id="path-1"></g>
                <path d="M66.6577328,51.7281681 C66.6548455,50.7470584 66.9959417,50.6703686 67.4206965,51.5577589 C67.4206965,51.5577589 77.6309222,72.9615241 85.4145683,88.261145 C87.2012287,91.7730236 88.7839424,94.9284079 90.1551704,97.5537788 C90.575122,98.3578236 90.8966091,99.1505131 91.3343981,99.804275 C92.0856961,100.926207 92.9647767,101.755725 93.7203506,102.374747 C95.2507872,103.628593 95.2699821,110.02074 97.2349959,110.359451 C98.2618732,110.536455 98.4020277,109.934009 99.3372025,109.455865 C101.291591,108.456609 103.526073,107.223043 106.077807,106.032407 C113.85239,102.404797 122.478008,98.1321088 122.478008,98.1321088 C123.358227,97.698096 124.071787,98.1395264 124.071787,99.12523 L124.071787,155.689883 C124.071787,156.672381 123.275463,157.468854 122.292294,157.468854 L68.7484073,157.468854 C67.7656212,157.468854 66.9665728,156.672812 66.9636873,155.692397 L66.6577328,51.7281681 L66.6577328,51.7281681 Z" id="Rectangle-3" fill="#000000" opacity="0.19" mask="url(#mask-2)" transform="translate(95.364751, 104.204034) rotate(-63.000000) translate(-95.364751, -104.204034) "></path>
                <mask id="mask-4" fill="white">
                    <use xlink:href="#path-3"></use>
                </mask>
                <g id="path-1"></g>
                <path d="M87.8935065,75.438961 L51.2418438,75.438961 C50.8486314,75.438961 50.5298701,75.1230262 50.5298701,74.7268674 L50.5298701,62.2731326 C50.5298701,61.879854 50.8470757,61.561039 51.2418438,61.561039 L87.8935065,61.561039 L87.8935065,31.671528 C87.8935065,31.2777014 88.2094413,30.9584416 88.6056001,30.9584416 L101.059335,30.9584416 C101.452614,30.9584416 101.771429,31.2768787 101.771429,31.671528 L101.771429,75.6168831 L113.514286,81.4883117 L101.771429,87.3597403 L101.771429,105.328472 C101.771429,105.722299 101.455494,106.041558 101.059335,106.041558 L88.6056001,106.041558 C88.2123215,106.041558 87.8935065,105.723121 87.8935065,105.328472 L87.8935065,75.438961 L87.8935065,75.438961 Z M48.7506494,92.1636364 L48.7506494,31.671528 C48.7506494,31.2768787 48.4318343,30.9584416 48.0385557,30.9584416 L35.5848209,30.9584416 C35.1886621,30.9584416 34.8727273,31.2777014 34.8727273,31.671528 L34.8727273,105.328472 C34.8727273,105.723121 35.1915423,106.041558 35.5848209,106.041558 L41.9880771,106.041558 L85.3625589,106.041558 C85.7535345,106.041558 86.0715862,105.722743 86.0715862,105.329465 L86.0715862,92.87573 C86.0715862,92.4795712 85.754144,92.1636364 85.3625589,92.1636364 L48.7506494,92.1636364 L48.7506494,92.1636364 Z" id="path-3" fill="#000000" mask="url(#mask-4)"></path>
                <path d="M87.8935065,75.438961 L51.2418438,75.438961 C50.8486314,75.438961 50.5298701,75.1230262 50.5298701,74.7268674 L50.5298701,62.2731326 C50.5298701,61.879854 50.8470757,61.561039 51.2418438,61.561039 L87.8935065,61.561039 L87.8935065,31.671528 C87.8935065,31.2777014 88.2094413,30.9584416 88.6056001,30.9584416 L101.059335,30.9584416 C101.452614,30.9584416 101.771429,31.2768787 101.771429,31.671528 L101.771429,75.6168831 L113.514286,81.4883117 L101.771429,87.3597403 L101.771429,105.328472 C101.771429,105.722299 101.455494,106.041558 101.059335,106.041558 L88.6056001,106.041558 C88.2123215,106.041558 87.8935065,105.723121 87.8935065,105.328472 L87.8935065,75.438961 L87.8935065,75.438961 Z M48.7506494,92.1636364 L48.7506494,31.671528 C48.7506494,31.2768787 48.4318343,30.9584416 48.0385557,30.9584416 L35.5848209,30.9584416 C35.1886621,30.9584416 34.8727273,31.2777014 34.8727273,31.671528 L34.8727273,105.328472 C34.8727273,105.723121 35.1915423,106.041558 35.5848209,106.041558 L41.9880771,106.041558 L85.3625589,106.041558 C85.7535345,106.041558 86.0715862,105.722743 86.0715862,105.329465 L86.0715862,92.87573 C86.0715862,92.4795712 85.754144,92.1636364 85.3625589,92.1636364 L48.7506494,92.1636364 L48.7506494,92.1636364 Z" id="path-3" fill="#02B3E4" mask="url(#mask-4)"></path>
            </g>
        </g>
    </g>
</svg>